<svg width="236" height="78" viewBox="0 0 236 78" fill="none" xmlns="http://www.w3.org/2000/svg">
<g filter="url(#filter0_d_4328_5113)">
<path d="M14 10H199.915L231.606 70L14 60.7042V10Z" fill="#429F32"/>
</g>
<g filter="url(#filter1_d_4328_5113)">
<path d="M4 0H189.915L221.606 60L4 50.7042V0Z" fill="white"/>
</g>
<path d="M73.688 41.04C72.984 41.552 72.088 41.904 71 42.096C69.912 42.3093 68.76 42.416 67.544 42.416C66.1147 42.416 64.7493 42.192 63.448 41.744C62.168 41.2747 61.0373 40.5707 60.056 39.632C59.0747 38.672 58.296 37.4667 57.72 36.016C57.144 34.544 56.856 32.8053 56.856 30.8C56.856 28.7093 57.176 26.928 57.816 25.456C58.456 23.984 59.288 22.7893 60.312 21.872C61.336 20.9333 62.488 20.2507 63.768 19.824C65.048 19.3973 66.3173 19.184 67.576 19.184C68.984 19.184 70.136 19.2587 71.032 19.408C71.928 19.5573 72.6853 19.7493 73.304 19.984L72.6 22.736C71.5547 22.2453 69.9653 22 67.832 22C66.872 22 65.9333 22.16 65.016 22.48C64.12 22.7787 63.3093 23.28 62.584 23.984C61.88 24.6667 61.3147 25.5733 60.888 26.704C60.4613 27.8133 60.248 29.1787 60.248 30.8C60.248 32.2507 60.4507 33.5307 60.856 34.64C61.2613 35.728 61.816 36.6453 62.52 37.392C63.2453 38.1173 64.088 38.672 65.048 39.056C66.0293 39.4187 67.096 39.6 68.248 39.6C69.2933 39.6 70.2 39.504 70.968 39.312C71.736 39.12 72.3867 38.8747 72.92 38.576L73.688 41.04ZM86.0215 27.984C85.6588 27.8773 85.3068 27.7813 84.9655 27.696C84.6242 27.6107 84.3042 27.568 84.0055 27.568C82.8748 27.568 81.9895 27.856 81.3495 28.432C80.7308 29.008 80.3468 29.7333 80.1975 30.608V42H77.2535V25.2H79.3015L79.8775 27.44H80.1655C80.6562 26.608 81.2215 25.968 81.8615 25.52C82.5228 25.0507 83.3442 24.816 84.3255 24.816C84.6242 24.816 84.9762 24.848 85.3815 24.912C85.7868 24.9547 86.1922 25.04 86.5975 25.168L86.0215 27.984ZM90.2418 25.2H93.1858V42H90.2418V25.2ZM89.6338 21.2C89.6338 20.7093 89.8258 20.272 90.2098 19.888C90.5938 19.4827 91.0951 19.28 91.7138 19.28C92.3324 19.28 92.8444 19.4827 93.2498 19.888C93.6551 20.272 93.8578 20.7093 93.8578 21.2C93.8578 21.6907 93.6551 22.128 93.2498 22.512C92.8444 22.8747 92.3324 23.056 91.7138 23.056C91.0951 23.056 90.5938 22.8747 90.2098 22.512C89.8258 22.128 89.6338 21.6907 89.6338 21.2ZM97.518 25.2H100.366V21.808L103.31 21.04V25.2H108.366V27.696H103.31V36.272C103.31 37.616 103.481 38.5653 103.822 39.12C104.163 39.6747 104.75 39.952 105.582 39.952C106.115 39.952 106.595 39.8987 107.022 39.792C107.47 39.664 107.971 39.504 108.526 39.312L109.198 41.392C108.515 41.6907 107.779 41.936 106.99 42.128C106.222 42.3413 105.39 42.448 104.494 42.448C103.001 42.448 101.934 42.0427 101.294 41.232C100.675 40.4213 100.366 39.0987 100.366 37.264V27.696H97.518V25.2ZM125.855 40.624C125.108 41.1787 124.18 41.6267 123.071 41.968C121.962 42.288 120.756 42.448 119.455 42.448C118.047 42.448 116.82 42.2453 115.775 41.84C114.751 41.4133 113.908 40.816 113.247 40.048C112.586 39.28 112.095 38.352 111.775 37.264C111.455 36.176 111.295 34.96 111.295 33.616C111.295 30.736 111.999 28.5387 113.407 27.024C114.836 25.488 116.863 24.72 119.487 24.72C120.319 24.72 121.151 24.816 121.983 25.008C122.815 25.1787 123.562 25.52 124.223 26.032C124.884 26.5227 125.418 27.2053 125.823 28.08C126.25 28.9547 126.463 30.096 126.463 31.504C126.463 31.8453 126.452 32.24 126.431 32.688C126.41 33.136 126.367 33.5733 126.303 34H114.303C114.346 35.9627 114.815 37.4453 115.711 38.448C116.607 39.4507 118.132 39.952 120.287 39.952C121.183 39.952 122.036 39.8027 122.847 39.504C123.658 39.184 124.287 38.8107 124.735 38.384L125.855 40.624ZM123.647 31.888C123.69 30.1813 123.338 28.976 122.591 28.272C121.866 27.568 120.842 27.216 119.519 27.216C118.026 27.216 116.842 27.568 115.967 28.272C115.092 28.976 114.58 30.1813 114.431 31.888H123.647ZM140.084 27.984C139.721 27.8773 139.369 27.7813 139.028 27.696C138.687 27.6107 138.367 27.568 138.068 27.568C136.937 27.568 136.052 27.856 135.412 28.432C134.793 29.008 134.409 29.7333 134.26 30.608V42H131.316V25.2H133.364L133.94 27.44H134.228C134.719 26.608 135.284 25.968 135.924 25.52C136.585 25.0507 137.407 24.816 138.388 24.816C138.687 24.816 139.039 24.848 139.444 24.912C139.849 24.9547 140.255 25.04 140.66 25.168L140.084 27.984ZM144.304 25.2H147.248V42H144.304V25.2ZM143.696 21.2C143.696 20.7093 143.888 20.272 144.272 19.888C144.656 19.4827 145.158 19.28 145.776 19.28C146.395 19.28 146.907 19.4827 147.312 19.888C147.718 20.272 147.92 20.7093 147.92 21.2C147.92 21.6907 147.718 22.128 147.312 22.512C146.907 22.8747 146.395 23.056 145.776 23.056C145.158 23.056 144.656 22.8747 144.272 22.512C143.888 22.128 143.696 21.6907 143.696 21.2ZM153.437 26.256C155.357 25.3387 157.735 24.88 160.573 24.88C161.853 24.88 162.877 25.0507 163.645 25.392C164.434 25.712 165.042 26.128 165.469 26.64C165.895 27.152 166.173 27.728 166.301 28.368C166.45 28.9867 166.525 29.6053 166.525 30.224C166.525 31.3973 166.482 32.5813 166.397 33.776C166.311 34.9493 166.269 36.2293 166.269 37.616C166.269 38.4267 166.301 39.216 166.365 39.984C166.45 40.7307 166.578 41.424 166.749 42.064H164.605L163.805 39.504H163.485C163.25 39.824 162.962 40.1547 162.621 40.496C162.279 40.816 161.874 41.104 161.405 41.36C160.935 41.616 160.391 41.8293 159.773 42C159.175 42.1707 158.482 42.256 157.693 42.256C156.903 42.256 156.178 42.1493 155.516 41.936C154.855 41.7013 154.279 41.3813 153.789 40.976C153.319 40.5707 152.946 40.08 152.669 39.504C152.391 38.9067 152.253 38.2453 152.253 37.52C152.253 36.56 152.455 35.728 152.861 35.024C153.287 34.32 153.831 33.744 154.493 33.296C155.154 32.848 155.901 32.5173 156.733 32.304C157.586 32.0907 158.429 31.984 159.26 31.984C159.922 31.984 160.477 31.9947 160.925 32.016C161.394 32.0373 161.778 32.0693 162.077 32.112C162.397 32.1333 162.663 32.1653 162.877 32.208C163.09 32.2293 163.282 32.2507 163.453 32.272C163.495 31.952 163.527 31.6747 163.549 31.44C163.57 31.2053 163.581 30.9067 163.581 30.544C163.581 29.9467 163.517 29.4453 163.389 29.04C163.261 28.6347 163.047 28.3147 162.749 28.08C162.471 27.824 162.087 27.6427 161.597 27.536C161.106 27.4293 160.509 27.376 159.805 27.376C159.399 27.376 158.951 27.408 158.461 27.472C157.97 27.536 157.479 27.632 156.989 27.76C156.498 27.8667 156.007 28.0053 155.516 28.176C155.047 28.3467 154.621 28.528 154.237 28.72L153.437 26.256ZM163.453 34.384C163.282 34.3627 163.101 34.3307 162.909 34.288C162.717 34.2453 162.471 34.2133 162.173 34.192C161.895 34.1707 161.554 34.1493 161.149 34.128C160.765 34.1067 160.285 34.096 159.709 34.096C158.386 34.096 157.33 34.3307 156.541 34.8C155.773 35.2693 155.389 36.0693 155.389 37.2C155.389 38.0533 155.687 38.6933 156.285 39.12C156.903 39.5467 157.693 39.76 158.653 39.76C159.357 39.76 159.975 39.6747 160.509 39.504C161.063 39.312 161.533 39.088 161.917 38.832C162.322 38.5547 162.642 38.256 162.877 37.936C163.133 37.5947 163.325 37.264 163.453 36.944V34.384Z" fill="black"/>
<defs>
<filter id="filter0_d_4328_5113" x="10" y="10" width="225.605" height="68" filterUnits="userSpaceOnUse" color-interpolation-filters="sRGB">
<feFlood flood-opacity="0" result="BackgroundImageFix"/>
<feColorMatrix in="SourceAlpha" type="matrix" values="0 0 0 0 0 0 0 0 0 0 0 0 0 0 0 0 0 0 127 0" result="hardAlpha"/>
<feOffset dy="4"/>
<feGaussianBlur stdDeviation="2"/>
<feComposite in2="hardAlpha" operator="out"/>
<feColorMatrix type="matrix" values="0 0 0 0 0 0 0 0 0 0 0 0 0 0 0 0 0 0 0.4 0"/>
<feBlend mode="normal" in2="BackgroundImageFix" result="effect1_dropShadow_4328_5113"/>
<feBlend mode="normal" in="SourceGraphic" in2="effect1_dropShadow_4328_5113" result="shape"/>
</filter>
<filter id="filter1_d_4328_5113" x="0" y="0" width="225.605" height="68" filterUnits="userSpaceOnUse" color-interpolation-filters="sRGB">
<feFlood flood-opacity="0" result="BackgroundImageFix"/>
<feColorMatrix in="SourceAlpha" type="matrix" values="0 0 0 0 0 0 0 0 0 0 0 0 0 0 0 0 0 0 127 0" result="hardAlpha"/>
<feOffset dy="4"/>
<feGaussianBlur stdDeviation="2"/>
<feComposite in2="hardAlpha" operator="out"/>
<feColorMatrix type="matrix" values="0 0 0 0 1 0 0 0 0 1 0 0 0 0 1 0 0 0 0.4 0"/>
<feBlend mode="normal" in2="BackgroundImageFix" result="effect1_dropShadow_4328_5113"/>
<feBlend mode="normal" in="SourceGraphic" in2="effect1_dropShadow_4328_5113" result="shape"/>
</filter>
</defs>
</svg>
