<svg width="236" height="79" viewBox="0 0 236 79" fill="none" xmlns="http://www.w3.org/2000/svg">
<g filter="url(#filter0_d_4328_5122)">
<path d="M14 10.5H199.915L231.606 70.5L14 61.2042V10.5Z" fill="#505150"/>
</g>
<g filter="url(#filter1_d_4328_5122)">
<path d="M4 0.5H189.915L221.606 60.5L4 51.2042V0.5Z" fill="white"/>
</g>
<path d="M39.92 34.116C39.92 32.7293 40.1013 31.492 40.464 30.404C40.8267 29.2947 41.36 28.356 42.064 27.588C42.768 26.82 43.6213 26.2333 44.624 25.828C45.648 25.4227 46.8107 25.22 48.112 25.22C49.4773 25.22 50.672 25.444 51.696 25.892C52.72 26.34 53.5733 26.9693 54.256 27.78C54.9387 28.5693 55.44 29.508 55.76 30.596C56.1013 31.6627 56.272 32.836 56.272 34.116C56.272 35.4813 56.08 36.708 55.696 37.796C55.3333 38.884 54.8 39.812 54.096 40.58C53.4133 41.348 52.56 41.9347 51.536 42.34C50.5333 42.7453 49.392 42.948 48.112 42.948C46.704 42.948 45.488 42.724 44.464 42.276C43.44 41.828 42.5867 41.2093 41.904 40.42C41.2427 39.6307 40.7413 38.7027 40.4 37.636C40.08 36.548 39.92 35.3747 39.92 34.116ZM43.056 34.116C43.056 34.9053 43.1413 35.684 43.312 36.452C43.504 37.1987 43.8027 37.8707 44.208 38.468C44.6133 39.0653 45.136 39.5453 45.776 39.908C46.416 40.2707 47.2053 40.452 48.144 40.452C51.472 40.452 53.136 38.34 53.136 34.116C53.136 33.284 53.04 32.484 52.848 31.716C52.6773 30.948 52.3893 30.276 51.984 29.7C51.6 29.1027 51.088 28.6227 50.448 28.26C49.808 27.8973 49.04 27.716 48.144 27.716C46.48 27.716 45.2107 28.2493 44.336 29.316C43.4827 30.3613 43.056 31.9613 43.056 34.116ZM69.7715 28.484C69.4088 28.3773 69.0568 28.2813 68.7155 28.196C68.3742 28.1107 68.0542 28.068 67.7555 28.068C66.6248 28.068 65.7395 28.356 65.0995 28.932C64.4808 29.508 64.0968 30.2333 63.9475 31.108V42.5H61.0035V25.7H63.0515L63.6275 27.94H63.9155C64.4062 27.108 64.9715 26.468 65.6115 26.02C66.2728 25.5507 67.0942 25.316 68.0755 25.316C68.3742 25.316 68.7262 25.348 69.1315 25.412C69.5368 25.4547 69.9422 25.54 70.3475 25.668L69.7715 28.484ZM87.5278 42.596C87.5278 44.7933 86.8771 46.4253 85.5758 47.492C84.2958 48.58 82.4078 49.124 79.9118 49.124C78.4611 49.124 77.2878 49.0387 76.3918 48.868C75.4958 48.6973 74.7278 48.4627 74.0878 48.164L74.7918 45.508C75.0691 45.636 75.3891 45.764 75.7518 45.892C76.1144 46.0413 76.4984 46.1693 76.9038 46.276C77.3091 46.3827 77.7144 46.468 78.1198 46.532C78.5464 46.596 78.9518 46.628 79.3358 46.628C80.3811 46.628 81.2451 46.532 81.9278 46.34C82.6104 46.1693 83.1544 45.892 83.5598 45.508C83.9651 45.124 84.2424 44.6333 84.3918 44.036C84.5411 43.4387 84.6158 42.724 84.6158 41.892V40.708H84.2638C83.9224 41.2627 83.3251 41.7107 82.4718 42.052C81.6184 42.3933 80.5838 42.564 79.3678 42.564C76.9358 42.564 75.1438 41.9133 73.9918 40.612C72.8398 39.2893 72.2638 37.1667 72.2638 34.244C72.2638 31.364 73.0104 29.1453 74.5038 27.588C75.9971 26.0307 78.2158 25.252 81.1598 25.252C82.5678 25.252 83.7731 25.3373 84.7758 25.508C85.7998 25.6787 86.7171 25.9027 87.5278 26.18V42.596ZM80.0078 40.068C81.3091 40.068 82.3224 39.7373 83.0478 39.076C83.7944 38.4147 84.3064 37.5507 84.5838 36.484V28.228C84.0931 28.0787 83.5278 27.9613 82.8878 27.876C82.2478 27.7907 81.5224 27.748 80.7118 27.748C79.0478 27.748 77.7464 28.2813 76.8078 29.348C75.8691 30.3933 75.3998 32.004 75.3998 34.18C75.3998 36.0573 75.7411 37.508 76.4238 38.532C77.1278 39.556 78.3224 40.068 80.0078 40.068ZM93.0303 26.756C94.9503 25.8387 97.3289 25.38 100.166 25.38C101.446 25.38 102.47 25.5507 103.238 25.892C104.028 26.212 104.636 26.628 105.062 27.14C105.489 27.652 105.766 28.228 105.894 28.868C106.044 29.4867 106.118 30.1053 106.118 30.724C106.118 31.8973 106.076 33.0813 105.99 34.276C105.905 35.4493 105.862 36.7293 105.862 38.116C105.862 38.9267 105.894 39.716 105.958 40.484C106.044 41.2307 106.172 41.924 106.342 42.564H104.198L103.398 40.004H103.078C102.844 40.324 102.556 40.6547 102.214 40.996C101.873 41.316 101.468 41.604 100.998 41.86C100.529 42.116 99.9849 42.3293 99.3663 42.5C98.7689 42.6707 98.0756 42.756 97.2863 42.756C96.4969 42.756 95.7716 42.6493 95.1102 42.436C94.4489 42.2013 93.8729 41.8813 93.3823 41.476C92.9129 41.0707 92.5396 40.58 92.2623 40.004C91.9849 39.4067 91.8463 38.7453 91.8463 38.02C91.8463 37.06 92.0489 36.228 92.4543 35.524C92.8809 34.82 93.4249 34.244 94.0863 33.796C94.7476 33.348 95.4943 33.0173 96.3263 32.804C97.1796 32.5907 98.0223 32.484 98.8542 32.484C99.5156 32.484 100.07 32.4947 100.518 32.516C100.988 32.5373 101.372 32.5693 101.67 32.612C101.99 32.6333 102.257 32.6653 102.47 32.708C102.684 32.7293 102.876 32.7507 103.046 32.772C103.089 32.452 103.121 32.1747 103.142 31.94C103.164 31.7053 103.174 31.4067 103.174 31.044C103.174 30.4467 103.11 29.9453 102.982 29.54C102.854 29.1347 102.641 28.8147 102.342 28.58C102.065 28.324 101.681 28.1427 101.19 28.036C100.7 27.9293 100.102 27.876 99.3983 27.876C98.9929 27.876 98.5449 27.908 98.0543 27.972C97.5636 28.036 97.0729 28.132 96.5823 28.26C96.0916 28.3667 95.6009 28.5053 95.1102 28.676C94.6409 28.8467 94.2143 29.028 93.8303 29.22L93.0303 26.756ZM103.046 34.884C102.876 34.8627 102.694 34.8307 102.502 34.788C102.31 34.7453 102.065 34.7133 101.766 34.692C101.489 34.6707 101.148 34.6493 100.742 34.628C100.358 34.6067 99.8783 34.596 99.3023 34.596C97.9796 34.596 96.9236 34.8307 96.1343 35.3C95.3663 35.7693 94.9823 36.5693 94.9823 37.7C94.9823 38.5533 95.2809 39.1933 95.8783 39.62C96.4969 40.0467 97.2863 40.26 98.2463 40.26C98.9503 40.26 99.5689 40.1747 100.102 40.004C100.657 39.812 101.126 39.588 101.51 39.332C101.916 39.0547 102.236 38.756 102.47 38.436C102.726 38.0947 102.918 37.764 103.046 37.444V34.884ZM123.783 42.5V33.22C123.783 31.428 123.495 30.084 122.919 29.188C122.343 28.292 121.319 27.844 119.847 27.844C118.546 27.844 117.458 28.1853 116.583 28.868C115.73 29.5293 115.133 30.3827 114.791 31.428V42.5H111.847V25.7H113.895L114.471 27.94H114.759C115.378 27.172 116.178 26.532 117.159 26.02C118.162 25.4867 119.357 25.22 120.743 25.22C121.725 25.22 122.589 25.3373 123.335 25.572C124.082 25.7853 124.701 26.18 125.191 26.756C125.703 27.3107 126.087 28.068 126.343 29.028C126.599 29.9667 126.727 31.1613 126.727 32.612V42.5H123.783ZM133.179 25.7H136.123V42.5H133.179V25.7ZM132.571 21.7C132.571 21.2093 132.763 20.772 133.147 20.388C133.531 19.9827 134.033 19.78 134.651 19.78C135.27 19.78 135.782 19.9827 136.187 20.388C136.593 20.772 136.795 21.2093 136.795 21.7C136.795 22.1907 136.593 22.628 136.187 23.012C135.782 23.3747 135.27 23.556 134.651 23.556C134.033 23.556 133.531 23.3747 133.147 23.012C132.763 22.628 132.571 22.1907 132.571 21.7ZM150.984 37.796C150.984 37.3693 150.877 37.0173 150.664 36.74C150.472 36.4413 150.205 36.196 149.864 36.004C149.522 35.7907 149.128 35.6093 148.68 35.46C148.232 35.3107 147.762 35.1613 147.272 35.012C146.653 34.8413 146.024 34.66 145.384 34.468C144.765 34.2547 144.2 33.9773 143.688 33.636C143.197 33.2733 142.792 32.8147 142.472 32.26C142.152 31.7053 141.992 31.0013 141.992 30.148C141.992 28.484 142.482 27.2467 143.464 26.436C144.466 25.6253 145.864 25.22 147.656 25.22C149 25.22 150.13 25.348 151.048 25.604C151.965 25.86 152.765 26.1373 153.448 26.436L152.744 28.932C152.168 28.6547 151.474 28.388 150.664 28.132C149.874 27.8547 149 27.716 148.04 27.716C146.994 27.716 146.216 27.8867 145.704 28.228C145.192 28.5693 144.936 29.188 144.936 30.084C144.936 30.4467 145.032 30.756 145.224 31.012C145.416 31.2467 145.672 31.46 145.992 31.652C146.312 31.8227 146.685 31.9827 147.112 32.132C147.538 32.26 147.986 32.388 148.456 32.516C149.096 32.6867 149.736 32.8893 150.376 33.124C151.016 33.3373 151.602 33.636 152.136 34.02C152.669 34.3827 153.096 34.852 153.416 35.428C153.757 36.004 153.928 36.7293 153.928 37.604C153.928 39.1827 153.394 40.4733 152.328 41.476C151.261 42.4573 149.661 42.948 147.528 42.948C146.162 42.948 144.968 42.8093 143.944 42.532C142.941 42.2547 142.098 41.9347 141.416 41.572L142.248 39.012C142.845 39.332 143.613 39.652 144.552 39.972C145.49 40.292 146.44 40.452 147.4 40.452C148.445 40.452 149.298 40.2707 149.96 39.908C150.642 39.524 150.984 38.82 150.984 37.796ZM172.136 41.124C171.39 41.6787 170.462 42.1267 169.352 42.468C168.243 42.788 167.038 42.948 165.736 42.948C164.328 42.948 163.102 42.7453 162.056 42.34C161.032 41.9133 160.19 41.316 159.528 40.548C158.867 39.78 158.376 38.852 158.056 37.764C157.736 36.676 157.576 35.46 157.576 34.116C157.576 31.236 158.28 29.0387 159.688 27.524C161.118 25.988 163.144 25.22 165.768 25.22C166.6 25.22 167.432 25.316 168.264 25.508C169.096 25.6787 169.843 26.02 170.504 26.532C171.166 27.0227 171.699 27.7053 172.104 28.58C172.531 29.4547 172.744 30.596 172.744 32.004C172.744 32.3453 172.734 32.74 172.712 33.188C172.691 33.636 172.648 34.0733 172.584 34.5H160.584C160.627 36.4627 161.096 37.9453 161.992 38.948C162.888 39.9507 164.414 40.452 166.568 40.452C167.464 40.452 168.318 40.3027 169.128 40.004C169.939 39.684 170.568 39.3107 171.016 38.884L172.136 41.124ZM169.928 32.388C169.971 30.6813 169.619 29.476 168.872 28.772C168.147 28.068 167.123 27.716 165.8 27.716C164.307 27.716 163.123 28.068 162.248 28.772C161.374 29.476 160.862 30.6813 160.712 32.388H169.928ZM186.365 28.484C186.003 28.3773 185.651 28.2813 185.309 28.196C184.968 28.1107 184.648 28.068 184.349 28.068C183.219 28.068 182.333 28.356 181.693 28.932C181.075 29.508 180.691 30.2333 180.541 31.108V42.5H177.597V25.7H179.645L180.221 27.94H180.509C181 27.108 181.565 26.468 182.205 26.02C182.867 25.5507 183.688 25.316 184.669 25.316C184.968 25.316 185.32 25.348 185.725 25.412C186.131 25.4547 186.536 25.54 186.941 25.668L186.365 28.484Z" fill="black"/>
<defs>
<filter id="filter0_d_4328_5122" x="10" y="10.5" width="225.605" height="68" filterUnits="userSpaceOnUse" color-interpolation-filters="sRGB">
<feFlood flood-opacity="0" result="BackgroundImageFix"/>
<feColorMatrix in="SourceAlpha" type="matrix" values="0 0 0 0 0 0 0 0 0 0 0 0 0 0 0 0 0 0 127 0" result="hardAlpha"/>
<feOffset dy="4"/>
<feGaussianBlur stdDeviation="2"/>
<feComposite in2="hardAlpha" operator="out"/>
<feColorMatrix type="matrix" values="0 0 0 0 0 0 0 0 0 0 0 0 0 0 0 0 0 0 0.4 0"/>
<feBlend mode="normal" in2="BackgroundImageFix" result="effect1_dropShadow_4328_5122"/>
<feBlend mode="normal" in="SourceGraphic" in2="effect1_dropShadow_4328_5122" result="shape"/>
</filter>
<filter id="filter1_d_4328_5122" x="0" y="0.5" width="225.605" height="68" filterUnits="userSpaceOnUse" color-interpolation-filters="sRGB">
<feFlood flood-opacity="0" result="BackgroundImageFix"/>
<feColorMatrix in="SourceAlpha" type="matrix" values="0 0 0 0 0 0 0 0 0 0 0 0 0 0 0 0 0 0 127 0" result="hardAlpha"/>
<feOffset dy="4"/>
<feGaussianBlur stdDeviation="2"/>
<feComposite in2="hardAlpha" operator="out"/>
<feColorMatrix type="matrix" values="0 0 0 0 1 0 0 0 0 1 0 0 0 0 1 0 0 0 0.4 0"/>
<feBlend mode="normal" in2="BackgroundImageFix" result="effect1_dropShadow_4328_5122"/>
<feBlend mode="normal" in="SourceGraphic" in2="effect1_dropShadow_4328_5122" result="shape"/>
</filter>
</defs>
</svg>
