<svg width="236" height="78" viewBox="0 0 236 78" fill="none" xmlns="http://www.w3.org/2000/svg">
<g filter="url(#filter0_d_4328_5131)">
<path d="M14 10H199.915L231.606 70L14 60.7042V10Z" fill="#505150"/>
</g>
<g filter="url(#filter1_d_4328_5131)">
<path d="M4 0H189.915L221.606 60L4 50.7042V0Z" fill="white"/>
</g>
<path d="M35.768 21.712H33.208V19.6H41.528V21.712H38.968V39.888H41.528V42H33.208V39.888H35.768V21.712ZM58.502 42V32.72C58.502 30.928 58.214 29.584 57.638 28.688C57.062 27.792 56.038 27.344 54.566 27.344C53.2647 27.344 52.1767 27.6853 51.302 28.368C50.4487 29.0293 49.8513 29.8827 49.51 30.928V42H46.566V25.2H48.614L49.19 27.44H49.478C50.0967 26.672 50.8967 26.032 51.878 25.52C52.8807 24.9867 54.0753 24.72 55.462 24.72C56.4433 24.72 57.3073 24.8373 58.054 25.072C58.8007 25.2853 59.4193 25.68 59.91 26.256C60.422 26.8107 60.806 27.568 61.062 28.528C61.318 29.4667 61.446 30.6613 61.446 32.112V42H58.502ZM78.266 22C77.69 21.8933 77.05 21.8187 76.346 21.776C75.642 21.712 75.0127 21.68 74.458 21.68C73.6473 21.68 72.9967 21.7547 72.506 21.904C72.0367 22.0533 71.674 22.2773 71.418 22.576C71.1833 22.8747 71.0233 23.248 70.938 23.696C70.874 24.1227 70.842 24.624 70.842 25.2H74.522V27.696H70.842V42H67.898V27.696H65.018V25.2H67.898V24.144C67.898 22.3947 68.3993 21.136 69.402 20.368C70.426 19.5787 72.1113 19.184 74.458 19.184C74.8633 19.184 75.3647 19.2053 75.962 19.248C76.5593 19.2693 77.1673 19.312 77.786 19.376C78.426 19.4187 79.0447 19.4827 79.642 19.568C80.2393 19.632 80.762 19.696 81.21 19.76V37.456C81.21 38.352 81.37 38.992 81.69 39.376C82.01 39.76 82.4473 39.952 83.002 39.952C83.3007 39.952 83.6313 39.9413 83.994 39.92C84.3567 39.8773 84.7513 39.792 85.178 39.664L85.53 41.84C85.082 42.032 84.5167 42.1813 83.834 42.288C83.1727 42.3947 82.5753 42.448 82.042 42.448C80.89 42.448 79.9727 42.16 79.29 41.584C78.6073 40.9867 78.266 40.0053 78.266 38.64V22ZM91.5413 25.2V34.448C91.5413 35.344 91.5946 36.1333 91.7013 36.816C91.8079 37.4987 91.9999 38.0747 92.2773 38.544C92.5546 38.992 92.9279 39.344 93.3973 39.6C93.8879 39.8347 94.5066 39.952 95.2533 39.952C96.5333 39.952 97.5786 39.5893 98.3893 38.864C99.1999 38.1387 99.8186 37.2427 100.245 36.176V25.2H103.189V37.232C103.189 38.0427 103.221 38.8747 103.285 39.728C103.349 40.56 103.445 41.3173 103.573 42H101.589L100.821 39.216H100.501C99.9466 40.176 99.1786 40.9547 98.1973 41.552C97.2159 42.1493 95.9893 42.448 94.5173 42.448C93.5359 42.448 92.6719 42.3307 91.9253 42.096C91.1999 41.8613 90.5813 41.4667 90.0693 40.912C89.5786 40.336 89.2053 39.5787 88.9493 38.64C88.7146 37.7013 88.5973 36.528 88.5973 35.12V25.2H91.5413ZM122.855 40.624C122.108 41.1787 121.18 41.6267 120.071 41.968C118.962 42.288 117.756 42.448 116.455 42.448C115.047 42.448 113.82 42.2453 112.775 41.84C111.751 41.4133 110.908 40.816 110.247 40.048C109.586 39.28 109.095 38.352 108.775 37.264C108.455 36.176 108.295 34.96 108.295 33.616C108.295 30.736 108.999 28.5387 110.407 27.024C111.836 25.488 113.863 24.72 116.487 24.72C117.319 24.72 118.151 24.816 118.983 25.008C119.815 25.1787 120.562 25.52 121.223 26.032C121.884 26.5227 122.418 27.2053 122.823 28.08C123.25 28.9547 123.463 30.096 123.463 31.504C123.463 31.8453 123.452 32.24 123.431 32.688C123.41 33.136 123.367 33.5733 123.303 34H111.303C111.346 35.9627 111.815 37.4453 112.711 38.448C113.607 39.4507 115.132 39.952 117.287 39.952C118.183 39.952 119.036 39.8027 119.847 39.504C120.658 39.184 121.287 38.8107 121.735 38.384L122.855 40.624ZM120.647 31.888C120.69 30.1813 120.338 28.976 119.591 28.272C118.866 27.568 117.842 27.216 116.519 27.216C115.026 27.216 113.842 27.568 112.967 28.272C112.092 28.976 111.58 30.1813 111.431 31.888H120.647ZM140.252 42V32.72C140.252 30.928 139.964 29.584 139.388 28.688C138.812 27.792 137.788 27.344 136.316 27.344C135.015 27.344 133.927 27.6853 133.052 28.368C132.199 29.0293 131.601 29.8827 131.26 30.928V42H128.316V25.2H130.364L130.94 27.44H131.228C131.847 26.672 132.647 26.032 133.628 25.52C134.631 24.9867 135.825 24.72 137.212 24.72C138.193 24.72 139.057 24.8373 139.804 25.072C140.551 25.2853 141.169 25.68 141.66 26.256C142.172 26.8107 142.556 27.568 142.812 28.528C143.068 29.4667 143.196 30.6613 143.196 32.112V42H140.252ZM161.488 40.848C160.741 41.3813 159.867 41.776 158.864 42.032C157.861 42.3093 156.805 42.448 155.696 42.448C154.288 42.448 153.083 42.2347 152.08 41.808C151.099 41.3813 150.299 40.784 149.68 40.016C149.061 39.248 148.613 38.32 148.336 37.232C148.059 36.144 147.92 34.9387 147.92 33.616C147.92 30.7787 148.603 28.592 149.968 27.056C151.355 25.4987 153.339 24.72 155.92 24.72C157.051 24.72 158.032 24.8267 158.864 25.04C159.696 25.232 160.443 25.4773 161.104 25.776L160.336 28.176C159.76 27.8773 159.131 27.6427 158.448 27.472C157.787 27.3013 157.061 27.216 156.272 27.216C152.795 27.216 151.056 29.3493 151.056 33.616C151.056 34.4267 151.152 35.216 151.344 35.984C151.536 36.7307 151.845 37.4027 152.272 38C152.699 38.576 153.253 39.0453 153.936 39.408C154.64 39.7707 155.493 39.952 156.496 39.952C157.392 39.952 158.171 39.8347 158.832 39.6C159.515 39.344 160.08 39.0453 160.528 38.704L161.488 40.848ZM178.668 40.624C177.921 41.1787 176.993 41.6267 175.884 41.968C174.774 42.288 173.569 42.448 172.268 42.448C170.86 42.448 169.633 42.2453 168.588 41.84C167.564 41.4133 166.721 40.816 166.06 40.048C165.398 39.28 164.908 38.352 164.588 37.264C164.268 36.176 164.108 34.96 164.108 33.616C164.108 30.736 164.812 28.5387 166.22 27.024C167.649 25.488 169.676 24.72 172.3 24.72C173.132 24.72 173.964 24.816 174.796 25.008C175.628 25.1787 176.374 25.52 177.036 26.032C177.697 26.5227 178.23 27.2053 178.635 28.08C179.062 28.9547 179.276 30.096 179.276 31.504C179.276 31.8453 179.265 32.24 179.244 32.688C179.222 33.136 179.18 33.5733 179.116 34H167.116C167.158 35.9627 167.628 37.4453 168.524 38.448C169.42 39.4507 170.945 39.952 173.1 39.952C173.996 39.952 174.849 39.8027 175.66 39.504C176.47 39.184 177.1 38.8107 177.548 38.384L178.668 40.624ZM176.46 31.888C176.502 30.1813 176.15 28.976 175.404 28.272C174.678 27.568 173.654 27.216 172.332 27.216C170.838 27.216 169.654 27.568 168.78 28.272C167.905 28.976 167.393 30.1813 167.244 31.888H176.46ZM192.897 27.984C192.534 27.8773 192.182 27.7813 191.841 27.696C191.499 27.6107 191.179 27.568 190.881 27.568C189.75 27.568 188.865 27.856 188.225 28.432C187.606 29.008 187.222 29.7333 187.073 30.608V42H184.129V25.2H186.177L186.753 27.44H187.041C187.531 26.608 188.097 25.968 188.737 25.52C189.398 25.0507 190.219 24.816 191.201 24.816C191.499 24.816 191.851 24.848 192.257 24.912C192.662 24.9547 193.067 25.04 193.473 25.168L192.897 27.984Z" fill="#242424"/>
<defs>
<filter id="filter0_d_4328_5131" x="10" y="10" width="225.605" height="68" filterUnits="userSpaceOnUse" color-interpolation-filters="sRGB">
<feFlood flood-opacity="0" result="BackgroundImageFix"/>
<feColorMatrix in="SourceAlpha" type="matrix" values="0 0 0 0 0 0 0 0 0 0 0 0 0 0 0 0 0 0 127 0" result="hardAlpha"/>
<feOffset dy="4"/>
<feGaussianBlur stdDeviation="2"/>
<feComposite in2="hardAlpha" operator="out"/>
<feColorMatrix type="matrix" values="0 0 0 0 0 0 0 0 0 0 0 0 0 0 0 0 0 0 0.4 0"/>
<feBlend mode="normal" in2="BackgroundImageFix" result="effect1_dropShadow_4328_5131"/>
<feBlend mode="normal" in="SourceGraphic" in2="effect1_dropShadow_4328_5131" result="shape"/>
</filter>
<filter id="filter1_d_4328_5131" x="0" y="0" width="225.605" height="68" filterUnits="userSpaceOnUse" color-interpolation-filters="sRGB">
<feFlood flood-opacity="0" result="BackgroundImageFix"/>
<feColorMatrix in="SourceAlpha" type="matrix" values="0 0 0 0 0 0 0 0 0 0 0 0 0 0 0 0 0 0 127 0" result="hardAlpha"/>
<feOffset dy="4"/>
<feGaussianBlur stdDeviation="2"/>
<feComposite in2="hardAlpha" operator="out"/>
<feColorMatrix type="matrix" values="0 0 0 0 1 0 0 0 0 1 0 0 0 0 1 0 0 0 0.4 0"/>
<feBlend mode="normal" in2="BackgroundImageFix" result="effect1_dropShadow_4328_5131"/>
<feBlend mode="normal" in="SourceGraphic" in2="effect1_dropShadow_4328_5131" result="shape"/>
</filter>
</defs>
</svg>
